<?xml version="1.0" standalone="no"?>
<svg xmlns:xlink="http://www.w3.org/1999/xlink" id="wave" style="transform:rotate(180deg); transition: 0.3s" viewBox="0 0 1440 100" version="1.1" xmlns="http://www.w3.org/2000/svg"><defs><linearGradient id="sw-gradient-0" x1="0" x2="0" y1="1" y2="0"><stop stop-color="rgba(206, 239, 255, 1)" offset="0%"/><stop stop-color="rgba(206, 239, 255, 1)" offset="100%"/></linearGradient></defs><path style="transform:translate(0, 0px); opacity:1" fill="url(#sw-gradient-0)" d="M0,30L34.3,26.7C68.6,23,137,17,206,26.7C274.3,37,343,63,411,66.7C480,70,549,50,617,41.7C685.7,33,754,37,823,43.3C891.4,50,960,60,1029,56.7C1097.1,53,1166,37,1234,25C1302.9,13,1371,7,1440,13.3C1508.6,20,1577,40,1646,50C1714.3,60,1783,60,1851,51.7C1920,43,1989,27,2057,16.7C2125.7,7,2194,3,2263,11.7C2331.4,20,2400,40,2469,55C2537.1,70,2606,80,2674,71.7C2742.9,63,2811,37,2880,21.7C2948.6,7,3017,3,3086,3.3C3154.3,3,3223,7,3291,21.7C3360,37,3429,63,3497,63.3C3565.7,63,3634,37,3703,30C3771.4,23,3840,37,3909,35C3977.1,33,4046,17,4114,13.3C4182.9,10,4251,20,4320,26.7C4388.6,33,4457,37,4526,33.3C4594.3,30,4663,20,4731,16.7C4800,13,4869,17,4903,18.3L4937.1,20L4937.1,100L4902.9,100C4868.6,100,4800,100,4731,100C4662.9,100,4594,100,4526,100C4457.1,100,4389,100,4320,100C4251.4,100,4183,100,4114,100C4045.7,100,3977,100,3909,100C3840,100,3771,100,3703,100C3634.3,100,3566,100,3497,100C3428.6,100,3360,100,3291,100C3222.9,100,3154,100,3086,100C3017.1,100,2949,100,2880,100C2811.4,100,2743,100,2674,100C2605.7,100,2537,100,2469,100C2400,100,2331,100,2263,100C2194.3,100,2126,100,2057,100C1988.6,100,1920,100,1851,100C1782.9,100,1714,100,1646,100C1577.1,100,1509,100,1440,100C1371.4,100,1303,100,1234,100C1165.7,100,1097,100,1029,100C960,100,891,100,823,100C754.3,100,686,100,617,100C548.6,100,480,100,411,100C342.9,100,274,100,206,100C137.1,100,69,100,34,100L0,100Z"/></svg>